<?xml version="1.0" encoding="UTF-8" standalone="no"?>
<!-- Created with Inkscape (http://www.inkscape.org/) -->

<svg
   width="1920"
   height="1080"
   viewBox="0 0 507.99999 285.75001"
   version="1.1"
   id="svg5"
   sodipodi:docname="riddance.svg"
   inkscape:export-filename="/home/blockhead/.minetest/mods/riddance/riddance.png"
   inkscape:export-xdpi="96"
   inkscape:export-ydpi="96"
   inkscape:version="1.1.2 (0a00cf5339, 2022-02-04)"
   xmlns:inkscape="http://www.inkscape.org/namespaces/inkscape"
   xmlns:sodipodi="http://sodipodi.sourceforge.net/DTD/sodipodi-0.dtd"
   xmlns="http://www.w3.org/2000/svg"
   xmlns:svg="http://www.w3.org/2000/svg">
  <sodipodi:namedview
     id="namedview7"
     pagecolor="#ffffff"
     bordercolor="#666666"
     borderopacity="1.0"
     inkscape:pageshadow="2"
     inkscape:pageopacity="0.0"
     inkscape:pagecheckerboard="0"
     inkscape:document-units="px"
     showgrid="false"
     units="px"
     inkscape:zoom="0.67760417"
     inkscape:cx="960"
     inkscape:cy="491.43736"
     inkscape:window-width="1916"
     inkscape:window-height="1037"
     inkscape:window-x="1920"
     inkscape:window-y="20"
     inkscape:window-maximized="1"
     inkscape:current-layer="layer1" />
  <defs
     id="defs2" />
  <g
     inkscape:label="Layer 1"
     inkscape:groupmode="layer"
     id="layer1">
    <text
       xml:space="preserve"
       style="font-size:12px;line-height:1.25;font-family:'Noto Sans';-inkscape-font-specification:'Noto Sans';letter-spacing:0px;stroke-width:0.264583"
       x="202.08061"
       y="135.30537"
       id="text1932"><tspan
         sodipodi:role="line"
         id="tspan1930"
         style="font-style:normal;font-variant:normal;font-weight:normal;font-stretch:normal;font-family:'Liberation Serif';-inkscape-font-specification:'Liberation Serif';stroke-width:0.264583"
         x="202.08061"
         y="135.30537" /></text>
    <text
       xml:space="preserve"
       style="font-size:12px;line-height:1.25;font-family:'Noto Sans';-inkscape-font-specification:'Noto Sans';letter-spacing:0px;stroke-width:0.264583"
       x="191.0717"
       y="145.79361"
       id="text6220"><tspan
         sodipodi:role="line"
         id="tspan6218"
         style="stroke-width:0.264583"></tspan></text>
    <text
       xml:space="preserve"
       style="font-size:211.667px;line-height:1.25;font-family:'Noto Sans';-inkscape-font-specification:'Noto Sans';letter-spacing:0px;stroke-width:0.264583"
       x="44.495346"
       y="101.94515"
       id="text7676"><tspan
         sodipodi:role="line"
         id="tspan7674"
         style="stroke-width:0.264583"></tspan></text>
    <g
       aria-label="Riddance."
       id="text9264"
       style="font-size:92.6042px;line-height:1.25;font-family:'Noto Sans';-inkscape-font-specification:'Noto Sans';letter-spacing:0px;fill:#b70000;stroke-width:0.264583"
       transform="translate(0,29.788111)">
      <path
         d="m 61.043854,54.344032 q 12.316359,0 18.150423,4.722814 5.926669,4.63021 5.926669,14.075839 0,5.278439 -1.944688,8.797399 -1.944688,3.51896 -5.000627,5.648857 -2.963334,2.037292 -6.297086,3.241147 L 90.028969,120.46343 H 80.305528 L 64.285001,93.145193 H 51.135204 V 120.46343 H 42.800826 V 54.344032 Z m -0.463021,7.223128 h -9.445629 v 24.540113 h 9.90865 q 8.056565,0 11.760733,-3.148543 3.704168,-3.241147 3.704168,-9.445628 0,-6.482294 -3.889376,-9.167816 Q 68.730002,61.56716 60.580833,61.56716 Z"
         id="path23113" />
      <path
         d="m 103.45655,52.214135 q 1.85209,0 3.24115,1.296459 1.48167,1.203855 1.48167,3.889377 0,2.592917 -1.48167,3.889376 -1.38906,1.296459 -3.24115,1.296459 -2.03729,0 -3.42635,-1.296459 -1.389065,-1.296459 -1.389065,-3.889376 0,-2.685522 1.389065,-3.889377 1.38906,-1.296459 3.42635,-1.296459 z m 3.98198,18.613445 v 49.63585 H 99.289364 V 70.82758 Z"
         id="path23115" />
      <path
         d="m 140.776,121.38947 c -6.17361,0 -11.11251,-2.1299 -14.81668,-6.38969 -3.70417,-4.32153 -5.55625,-10.74208 -5.55625,-19.26167 0,-8.519587 1.85208,-14.940145 5.55625,-19.261674 3.76591,-4.383265 8.73567,-6.574898 14.90928,-6.574898 3.82764,0 6.94532,0.709966 9.35303,2.129897 2.46944,1.419931 4.47586,3.148542 6.01927,5.185835 h 0.55562 c -0.0617,-0.80257 -0.1852,-1.975557 -0.37041,-3.51896 -0.12347,-1.605139 -0.18521,-2.87073 -0.18521,-3.796772 V 50.084239 h 8.14917 v 70.379191 h -6.5749 l -1.20385,-6.6675 h -0.37042 c -1.48167,2.09903 -3.45722,3.88937 -5.92667,5.37104 -2.46945,1.48167 -5.64886,2.2225 -9.53823,2.2225 z m 1.29646,-6.7601 c 5.24757,0 8.92087,-1.41993 11.0199,-4.2598 2.16076,-2.90159 3.24114,-7.25399 3.24114,-13.057188 v -1.481667 c 0,-3.086807 -0.72072,-14.534768 -2.44829,-12.846229 l -19.49185,29.392104 -4.91818,-5.13057 19.44999,-29.334218 c 1.13791,-1.716183 -4.19806,-1.250157 -6.94532,-1.250157 -4.38327,0 -7.68615,1.75948 -9.90865,5.278439 -2.16077,3.457223 -3.24115,8.118302 -3.24115,13.983235 0,5.926671 1.08038,10.526011 3.24115,13.798021 2.2225,3.27202 5.55625,4.90803 10.00126,4.90803 z m 52.72162,6.67594 c -6.17361,0 -11.11251,-2.12989 -14.81668,-6.38969 -3.70417,-4.32153 -5.55625,-10.74207 -5.55625,-19.261664 0,-8.519586 1.85208,-14.940145 5.55625,-19.261672 3.76591,-4.383268 8.73566,-6.574899 14.90927,-6.574899 3.82764,0 6.94533,0.709964 9.35304,2.129896 2.46943,1.419931 4.47585,3.148542 6.01926,5.185836 h 0.55562 c -0.0617,-0.802571 -0.18519,-1.975557 -0.3704,-3.518961 -0.12347,-1.60514 -0.18522,-2.870729 -0.18522,-3.796771 v -19.8173 h 8.14918 v 70.379195 h -6.5749 l -1.20385,-6.6675 h -0.37043 c -1.48166,2.09902 -3.45722,3.88936 -5.92666,5.37103 -2.46945,1.48168 -5.64886,2.2225 -9.53823,2.2225 z m 1.29645,-6.76009 c 5.24758,0 8.92088,-1.41993 11.01991,-4.2598 2.16075,-2.90159 3.24114,-7.254 3.24114,-13.057191 v -1.481667 c 0,-3.086809 -0.72072,-14.534769 -2.44829,-12.84623 l -19.49186,29.392108 -4.91817,-5.13057 19.44999,-29.334222 c 1.1379,-1.716183 -4.19806,-1.250156 -6.94533,-1.250156 -4.38327,0 -7.68614,1.759479 -9.90864,5.278437 -2.16077,3.457224 -3.24115,8.118304 -3.24115,13.983235 0,5.926676 1.08038,10.526006 3.24115,13.798026 2.2225,3.27201 5.55625,4.90803 10.00125,4.90803 z"
         id="path23117"
         sodipodi:nodetypes="scscsccccsccccccssscsssccsscscsscscsccccsccccccssscssccccscscs" />
      <path
         d="m 255.88297,69.994142 q 9.07522,0 13.42761,3.981981 4.3524,3.98198 4.3524,12.686775 v 33.800532 h -5.92667 l -1.57427,-7.03792 h -0.37042 q -3.24114,4.07459 -6.85271,6.01928 -3.51896,1.94468 -9.81604,1.94468 -6.76011,0 -11.20511,-3.51896 -4.445,-3.61156 -4.445,-11.2051 0,-7.40834 5.83406,-11.390321 5.83407,-4.074585 17.96522,-4.445001 l 8.42698,-0.277813 v -2.963334 q 0,-6.204482 -2.68552,-8.612191 -2.68552,-2.40771 -7.59355,-2.40771 -3.88937,0 -7.40833,1.203855 -3.51896,1.11125 -6.5749,2.592918 l -2.50032,-6.111878 q 3.24115,-1.759479 7.68615,-2.963334 4.445,-1.296459 9.26042,-1.296459 z m 2.40771,26.484802 q -9.26042,0.370417 -12.87198,2.963334 -3.51896,2.592922 -3.51896,7.315732 0,4.16719 2.50031,6.11188 2.59292,1.94469 6.5749,1.94469 6.29709,0 10.46428,-3.42636 4.16718,-3.51896 4.16718,-10.74209 v -4.444999 z"
         id="path23121" />
      <path
         d="m 312.92724,69.901538 q 8.89,0 13.42761,4.352397 4.5376,4.259794 4.5376,13.890631 v 32.318864 h -8.05656 V 88.700191 q 0,-11.945942 -11.11251,-11.945942 -8.24177,0 -11.39031,4.63021 -3.14855,4.63021 -3.14855,13.335005 v 25.743966 h -8.14917 V 70.82758 h 6.5749 l 1.20386,6.760107 h 0.46302 q 2.40771,-3.889377 6.6675,-5.741461 4.25979,-1.944688 8.98261,-1.944688 z"
         id="path23123" />
      <path
         d="m 366.17467,121.38947 q -6.57489,0 -11.76073,-2.68552 -5.09323,-2.68552 -8.05657,-8.33438 -2.87073,-5.64885 -2.87073,-14.446251 0,-9.167816 3.05594,-14.909277 3.05594,-5.74146 8.24178,-8.426982 5.27844,-2.685522 11.94594,-2.685522 3.79677,0 7.31573,0.833438 3.51896,0.740833 5.74146,1.852084 l -2.50031,6.760107 q -2.2225,-0.833438 -5.18584,-1.574272 -2.96333,-0.740834 -5.55625,-0.740834 -14.63146,0 -14.63146,18.798654 0,8.982605 3.51896,13.798025 3.61156,4.72281 10.64948,4.72281 4.07458,0 7.13052,-0.83343 3.14855,-0.83344 5.74146,-2.0373 v 7.22313 q -2.50031,1.29646 -5.55625,1.94469 -2.96333,0.74083 -7.22313,0.74083 z"
         id="path23125" />
      <path
         d="m 409.88379,69.901538 q 6.38969,0 10.9273,2.778126 4.63021,2.778126 7.03792,7.871357 2.50031,5.000627 2.50031,11.760734 v 4.908023 h -33.98574 q 0.18521,8.426982 4.25979,12.871982 4.16719,4.3524 11.57553,4.3524 4.72281,0 8.33438,-0.83344 3.70416,-0.92604 7.59354,-2.59292 v 7.13053 q -3.79677,1.66687 -7.50094,2.40771 -3.70417,0.83343 -8.7974,0.83343 -7.03792,0 -12.50157,-2.87073 -5.37104,-2.87073 -8.42698,-8.51958 -2.96333,-5.74146 -2.96333,-13.983237 0,-8.14917 2.68552,-13.983235 2.77812,-5.834064 7.68615,-8.982607 5.00062,-3.148543 11.57552,-3.148543 z m -0.0926,6.667502 q -5.83407,0 -9.26042,3.796773 -3.33375,3.704168 -3.98198,10.37167 h 25.28094 q -0.0926,-6.297085 -2.96333,-10.186462 -2.87073,-3.981981 -9.07521,-3.981981 z"
         id="path23127" />
      <path
         d="m 441.73957,115.46281 q 0,-3.42636 1.66687,-4.81542 1.66688,-1.38907 3.98198,-1.38907 2.40771,0 4.07459,1.38907 1.75948,1.38906 1.75948,4.81542 0,3.33375 -1.75948,4.81541 -1.66688,1.48167 -4.07459,1.48167 -2.3151,0 -3.98198,-1.48167 -1.66687,-1.48166 -1.66687,-4.81541 z"
         id="path23129" />
    </g>
  </g>
</svg>
